<svg xmlns="http://www.w3.org/2000/svg" xmlns:xlink="http://www.w3.org/1999/xlink" width="500" zoomAndPan="magnify" viewBox="0 0 375 374.999991" height="500" preserveAspectRatio="xMidYMid meet" version="1.0"><defs><clipPath id="666c48cd3b"><path d="M 0 81 L 108 81 L 108 150 L 0 150 Z M 0 81 " clip-rule="nonzero"/></clipPath><clipPath id="01b9a6a1c0"><path d="M 267.375 81 L 375 81 L 375 150 L 267.375 150 Z M 267.375 81 " clip-rule="nonzero"/></clipPath><clipPath id="99da8679ef"><path d="M 0 306 L 108 306 L 108 375 L 0 375 Z M 0 306 " clip-rule="nonzero"/></clipPath><clipPath id="1c443f9d4e"><path d="M 267.375 306 L 375 306 L 375 375 L 267.375 375 Z M 267.375 306 " clip-rule="nonzero"/></clipPath></defs><path fill="#100f0d" d="M 54.015625 70.53125 C 73.558594 70.53125 89.398438 54.742188 89.398438 35.269531 C 89.398438 15.796875 73.558594 0.0117188 54.015625 0.0117188 C 34.472656 0.0117188 18.632812 15.796875 18.632812 35.269531 C 18.632812 54.742188 34.472656 70.53125 54.015625 70.53125 " fill-opacity="1" fill-rule="nonzero"/><g clip-path="url(#666c48cd3b)"><path fill="#100f0d" d="M 54.015625 81.65625 C 24.191406 81.65625 0.015625 102.878906 0.015625 132.601562 L 0.015625 150.019531 L 108.015625 150.019531 L 108.015625 132.601562 C 108.015625 102.878906 83.839844 81.65625 54.015625 81.65625 " fill-opacity="1" fill-rule="nonzero"/></g><path fill="#100f0d" d="M 321.390625 70.53125 C 340.933594 70.53125 356.773438 54.742188 356.773438 35.269531 C 356.773438 15.796875 340.933594 0.0117188 321.390625 0.0117188 C 301.847656 0.0117188 286.007812 15.796875 286.007812 35.269531 C 286.007812 54.742188 301.847656 70.53125 321.390625 70.53125 " fill-opacity="1" fill-rule="nonzero"/><g clip-path="url(#01b9a6a1c0)"><path fill="#100f0d" d="M 321.390625 81.65625 C 291.566406 81.65625 267.390625 102.878906 267.390625 132.601562 L 267.390625 150.019531 L 375.390625 150.019531 L 375.390625 132.601562 C 375.390625 102.878906 351.214844 81.65625 321.390625 81.65625 " fill-opacity="1" fill-rule="nonzero"/></g><path fill="#100f0d" d="M 54.015625 295.53125 C 73.558594 295.53125 89.398438 279.742188 89.398438 260.269531 C 89.398438 240.796875 73.558594 225.011719 54.015625 225.011719 C 34.472656 225.011719 18.632812 240.796875 18.632812 260.269531 C 18.632812 279.742188 34.472656 295.53125 54.015625 295.53125 " fill-opacity="1" fill-rule="nonzero"/><g clip-path="url(#99da8679ef)"><path fill="#100f0d" d="M 54.015625 306.65625 C 24.191406 306.65625 0.015625 327.878906 0.015625 357.601562 L 0.015625 375.019531 L 108.015625 375.019531 L 108.015625 357.601562 C 108.015625 327.878906 83.839844 306.65625 54.015625 306.65625 " fill-opacity="1" fill-rule="nonzero"/></g><path fill="#100f0d" d="M 321.390625 295.53125 C 340.933594 295.53125 356.773438 279.742188 356.773438 260.269531 C 356.773438 240.796875 340.933594 225.011719 321.390625 225.011719 C 301.847656 225.011719 286.007812 240.796875 286.007812 260.269531 C 286.007812 279.742188 301.847656 295.53125 321.390625 295.53125 " fill-opacity="1" fill-rule="nonzero"/><g clip-path="url(#1c443f9d4e)"><path fill="#100f0d" d="M 321.390625 306.65625 C 291.566406 306.65625 267.390625 327.878906 267.390625 357.601562 L 267.390625 375.019531 L 375.390625 375.019531 L 375.390625 357.601562 C 375.390625 327.878906 351.214844 306.65625 321.390625 306.65625 " fill-opacity="1" fill-rule="nonzero"/></g></svg>